<svg width="21" height="21" viewBox="0 0 21 21" fill="none" xmlns="http://www.w3.org/2000/svg">
<path d="M5 0C2.24433 0 0 2.24433 0 5V16C0 18.7557 2.24433 21 5 21H16C18.7557 21 21 18.7557 21 16V5C21 2.24433 18.7557 0 16 0H5ZM4.5 6H16.5C16.59 6 16.6749 6.01016 16.7549 6.03516L11.8398 10.9453C11.0998 11.6853 9.89527 11.6853 9.15527 10.9453L4.24512 6.03516C4.32512 6.01016 4.41 6 4.5 6ZM3.53516 6.74512L7.29492 10.5L3.53516 14.2549C3.51016 14.1749 3.5 14.09 3.5 14V7C3.5 6.91 3.51016 6.82512 3.53516 6.74512ZM17.4648 6.74512C17.4898 6.82512 17.5 6.91 17.5 7V14C17.5 14.09 17.4898 14.1749 17.4648 14.2549L13.7002 10.5L17.4648 6.74512ZM8 11.2051L8.44531 11.6553C9.01031 12.2203 9.75512 12.5 10.4951 12.5C11.2401 12.5 11.9799 12.2203 12.5449 11.6553L12.9951 11.2051L16.7549 14.9648C16.6749 14.9898 16.59 15 16.5 15H4.5C4.41 15 4.32512 14.9898 4.24512 14.9648L8 11.2051Z" fill="white"/>
</svg>
