<svg width="21" height="22" viewBox="0 0 21 22" fill="none" xmlns="http://www.w3.org/2000/svg">
<path d="M5 0.995117C2.24433 0.995117 0 3.23945 0 5.99512V16.9951C0 19.7508 2.24433 21.9951 5 21.9951H16C18.7557 21.9951 21 19.7508 21 16.9951V5.99512C21 3.23945 18.7557 0.995117 16 0.995117H5ZM7.00293 5.0166C7.31693 5.0301 7.6053 5.20702 7.7793 5.47852C7.9773 5.78752 8.28457 6.26708 8.68457 6.89258C9.04957 7.46308 9.07502 8.19992 8.74902 8.79492L8.0166 9.83691C7.8186 10.1189 7.77911 10.4799 7.91211 10.7979C8.11911 11.2929 8.5204 12.0536 9.2334 12.7666C9.9464 13.4796 10.7071 13.8809 11.2021 14.0879C11.5201 14.2209 11.8811 14.1814 12.1631 13.9834L13.2051 13.251C13.8001 12.925 14.5369 12.9509 15.1074 13.3154C15.7329 13.7154 16.2125 14.0227 16.5215 14.2207C16.793 14.3947 16.9699 14.6831 16.9834 14.9971C17.0604 16.7791 15.6798 17.501 15.2783 17.501C15.0003 17.501 11.6582 17.8808 7.88867 14.1113C4.11917 10.3418 4.49902 6.99968 4.49902 6.72168C4.49902 6.32018 5.22093 4.9396 7.00293 5.0166Z" fill="white"/>
</svg>
