<svg width="80" height="80" viewBox="0 0 80 80" fill="none" xmlns="http://www.w3.org/2000/svg">
<path d="M40 4.80005C20.5785 4.80005 4.79999 20.5785 4.79999 40C4.79999 57.6307 17.804 72.2214 34.7406 74.7657L36.5781 75.0438V47.3063H28.2625V41.675H36.5781V34.1969C36.5781 29.592 37.6831 26.5591 39.5125 24.6563C41.3418 22.7535 44.0448 21.7938 47.8062 21.7938C50.8139 21.7938 51.984 21.976 53.0969 22.1125V26.7219H49.1812C46.9595 26.7219 45.1367 27.9615 44.1906 29.6125C43.2445 31.2636 42.95 33.235 42.95 35.2438V41.6719H52.7469L51.875 47.3032H42.95V75.0875L44.7656 74.8407C61.9429 72.511 75.2 57.803 75.2 40C75.2 20.5785 59.4215 4.80005 40 4.80005ZM40 8.00005C57.6921 8.00005 72 22.308 72 40C72 55.5677 60.8573 68.3709 46.15 71.2532V50.5032H54.6187L56.4781 38.4719H46.15V35.2438C46.15 33.5838 46.4537 32.0965 46.9656 31.2032C47.4775 30.3098 47.971 29.9219 49.1812 29.9219H56.2969V19.2157L54.9094 19.0282C53.9497 18.8983 51.7587 18.5938 47.8062 18.5938C43.4813 18.5938 39.7689 19.772 37.2062 22.4376C34.6436 25.1031 33.3781 29.0723 33.3781 34.1969V38.475H25.0625V50.5063H33.3781V71.1532C18.9072 68.0877 7.99999 55.3992 7.99999 40C7.99999 22.308 22.3079 8.00005 40 8.00005Z" fill="#F5A302"/>
</svg>
