<svg width="80" height="80" viewBox="0 0 80 80" fill="none" xmlns="http://www.w3.org/2000/svg">
<path d="M25.6 4.80005C14.132 4.80005 4.79999 14.132 4.79999 25.6V54.4001C4.79999 65.8681 14.132 75.2001 25.6 75.2001H54.4C65.868 75.2001 75.2 65.8681 75.2 54.4001V25.6C75.2 14.132 65.868 4.80005 54.4 4.80005H25.6ZM25.6 8.00005H54.4C64.1384 8.00005 72 15.8617 72 25.6V54.4001C72 64.1384 64.1384 72.0001 54.4 72.0001H25.6C15.8616 72.0001 7.99999 64.1384 7.99999 54.4001V25.6C7.99999 15.8617 15.8616 8.00005 25.6 8.00005ZM59.2 17.6C58.3513 17.6 57.5374 17.9372 56.9372 18.5373C56.3371 19.1374 56 19.9514 56 20.8C56 21.6487 56.3371 22.4627 56.9372 23.0628C57.5374 23.6629 58.3513 24 59.2 24C60.0487 24 60.8626 23.6629 61.4627 23.0628C62.0629 22.4627 62.4 21.6487 62.4 20.8C62.4 19.9514 62.0629 19.1374 61.4627 18.5373C60.8626 17.9372 60.0487 17.6 59.2 17.6ZM40 22.4C30.2987 22.4 22.4 30.2988 22.4 40C22.4 49.7013 30.2987 57.6 40 57.6C49.7012 57.6 57.6 49.7013 57.6 40C57.6 30.2988 49.7012 22.4 40 22.4ZM40 25.6C47.9718 25.6 54.4 32.0282 54.4 40C54.4 47.9719 47.9718 54.4001 40 54.4001C32.0281 54.4001 25.6 47.9719 25.6 40C25.6 32.0282 32.0281 25.6 40 25.6Z" fill="#F5A302"/>
</svg>
